<?xml version="1.0" encoding="UTF-8" standalone="no"?>
<!DOCTYPE svg PUBLIC "-//W3C//DTD SVG 1.1//EN"
 "http://www.w3.org/Graphics/SVG/1.1/DTD/svg11.dtd">
<!-- Generated by graphviz version 2.26.0 (20091210.2329)
 -->
<!-- Title: G Pages: 1 -->
<svg width="370pt" height="531pt"
 viewBox="0.00 0.00 370.00 531.00" xmlns="http://www.w3.org/2000/svg" xmlns:xlink="http://www.w3.org/1999/xlink">
<g id="graph1" class="graph" transform="scale(1 1) rotate(0) translate(4 527)">
<title>G</title>
<polygon fill="white" stroke="white" points="-4,5 -4,-527 367,-527 367,5 -4,5"/>
<g id="graph2" class="cluster"><title>cluster_Global</title>
<polyline fill="none" stroke="gray" points="20,-8 342,-8 "/>
<path fill="none" stroke="gray" d="M342,-8C348,-8 354,-14 354,-20"/>
<polyline fill="none" stroke="gray" points="354,-20 354,-503 "/>
<path fill="none" stroke="gray" d="M354,-503C354,-509 348,-515 342,-515"/>
<polyline fill="none" stroke="gray" points="342,-515 20,-515 "/>
<path fill="none" stroke="gray" d="M20,-515C14,-515 8,-509 8,-503"/>
<polyline fill="none" stroke="gray" points="8,-503 8,-20 "/>
<path fill="none" stroke="gray" d="M8,-20C8,-14 14,-8 20,-8"/>
<text text-anchor="middle" x="181" y="-501.1" font-family="Times Roman,serif" font-size="11.00" fill="gray">Global</text>
</g>
<!-- \\hykwWPData_account -->
<g id="node2" class="node"><title>\\hykwWPData_account</title>
<polygon fill="none" stroke="black" points="342,-484 204,-484 204,-448 342,-448 342,-484"/>
<text text-anchor="middle" x="273" y="-463.1" font-family="Courier,monospace" font-size="11.00">hykwWPData_account</text>
</g>
<!-- \\baseHykwWPData -->
<g id="node10" class="node"><title>\\baseHykwWPData</title>
<polygon fill="none" stroke="black" points="127,-268 17,-268 17,-232 127,-232 127,-268"/>
<text text-anchor="middle" x="72" y="-247.1" font-family="Courier,monospace" font-size="11.00">baseHykwWPData</text>
</g>
<!-- \\hykwWPData_account&#45;&gt;\\baseHykwWPData -->
<g id="edge3" class="edge"><title>\\hykwWPData_account&#45;&gt;\\baseHykwWPData</title>
<path fill="none" stroke="black" d="M213.875,-447.894C208.96,-445.287 204.254,-442.335 200,-439 143.384,-394.615 102.699,-318.142 83.8196,-277.407"/>
<polygon fill="none" stroke="black" points="86.9156,-275.759 79.5978,-268.097 80.5405,-278.65 86.9156,-275.759"/>
</g>
<!-- \\hykwWPData_site -->
<g id="node3" class="node"><title>\\hykwWPData_site</title>
<polygon fill="none" stroke="black" points="332,-430 214,-430 214,-394 332,-394 332,-430"/>
<text text-anchor="middle" x="273" y="-409.1" font-family="Courier,monospace" font-size="11.00">hykwWPData_site</text>
</g>
<!-- \\hykwWPData_site&#45;&gt;\\baseHykwWPData -->
<g id="edge5" class="edge"><title>\\hykwWPData_site&#45;&gt;\\baseHykwWPData</title>
<path fill="none" stroke="black" d="M215.939,-393.854C210.377,-391.22 204.963,-388.274 200,-385 154.85,-355.217 113.995,-306.628 91.1375,-276.583"/>
<polygon fill="none" stroke="black" points="93.7034,-274.171 84.9077,-268.264 88.1002,-278.366 93.7034,-274.171"/>
</g>
<!-- \\hykwWPData_ob -->
<g id="node4" class="node"><title>\\hykwWPData_ob</title>
<polygon fill="none" stroke="black" points="325,-376 221,-376 221,-340 325,-340 325,-376"/>
<text text-anchor="middle" x="273" y="-355.1" font-family="Courier,monospace" font-size="11.00">hykwWPData_ob</text>
</g>
<!-- \\hykwWPData_ob&#45;&gt;\\baseHykwWPData -->
<g id="edge7" class="edge"><title>\\hykwWPData_ob&#45;&gt;\\baseHykwWPData</title>
<path fill="none" stroke="black" d="M220.981,-340.296C213.831,-337.419 206.662,-334.294 200,-331 166.472,-314.421 130.688,-291.261 105.505,-273.95"/>
<polygon fill="none" stroke="black" points="107.272,-270.917 97.0609,-268.092 103.282,-276.668 107.272,-270.917"/>
</g>
<!-- \\hykwWPData_post -->
<g id="node5" class="node"><title>\\hykwWPData_post</title>
<polygon fill="none" stroke="black" points="332,-322 214,-322 214,-286 332,-286 332,-322"/>
<text text-anchor="middle" x="273" y="-301.1" font-family="Courier,monospace" font-size="11.00">hykwWPData_post</text>
</g>
<!-- \\hykwWPData_post&#45;&gt;\\baseHykwWPData -->
<g id="edge9" class="edge"><title>\\hykwWPData_post&#45;&gt;\\baseHykwWPData</title>
<path fill="none" stroke="black" d="M213.781,-288.09C189.863,-281.665 162.169,-274.225 137.639,-267.634"/>
<polygon fill="none" stroke="black" points="138.263,-264.178 127.698,-264.964 136.447,-270.938 138.263,-264.178"/>
</g>
<!-- \\hykwWPData -->
<g id="node6" class="node"><title>\\hykwWPData</title>
<polygon fill="none" stroke="black" points="315,-268 231,-268 231,-232 315,-232 315,-268"/>
<text text-anchor="middle" x="273" y="-247.1" font-family="Courier,monospace" font-size="11.00">hykwWPData</text>
</g>
<!-- \\hykwWPData_page -->
<g id="node7" class="node"><title>\\hykwWPData_page</title>
<polygon fill="none" stroke="black" points="332,-214 214,-214 214,-178 332,-178 332,-214"/>
<text text-anchor="middle" x="273" y="-193.1" font-family="Courier,monospace" font-size="11.00">hykwWPData_page</text>
</g>
<!-- \\hykwWPData_page&#45;&gt;\\baseHykwWPData -->
<g id="edge11" class="edge"><title>\\hykwWPData_page&#45;&gt;\\baseHykwWPData</title>
<path fill="none" stroke="black" d="M213.781,-211.91C189.863,-218.335 162.169,-225.775 137.639,-232.366"/>
<polygon fill="none" stroke="black" points="136.447,-229.062 127.698,-235.036 138.263,-235.822 136.447,-229.062"/>
</g>
<!-- \\hykwWPData_category -->
<g id="node8" class="node"><title>\\hykwWPData_category</title>
<polygon fill="none" stroke="black" points="345,-160 201,-160 201,-124 345,-124 345,-160"/>
<text text-anchor="middle" x="273" y="-139.1" font-family="Courier,monospace" font-size="11.00">hykwWPData_category</text>
</g>
<!-- \\hykwWPData_category&#45;&gt;\\baseHykwWPData -->
<g id="edge13" class="edge"><title>\\hykwWPData_category&#45;&gt;\\baseHykwWPData</title>
<path fill="none" stroke="black" d="M220.201,-160.019C213.31,-162.808 206.42,-165.826 200,-169 166.472,-185.579 130.688,-208.739 105.505,-226.05"/>
<polygon fill="none" stroke="black" points="103.282,-223.332 97.0609,-231.908 107.272,-229.083 103.282,-223.332"/>
</g>
<!-- \\hykwWPData_tag -->
<g id="node9" class="node"><title>\\hykwWPData_tag</title>
<polygon fill="none" stroke="black" points="328,-106 218,-106 218,-70 328,-70 328,-106"/>
<text text-anchor="middle" x="273" y="-85.1" font-family="Courier,monospace" font-size="11.00">hykwWPData_tag</text>
</g>
<!-- \\hykwWPData_tag&#45;&gt;\\baseHykwWPData -->
<g id="edge15" class="edge"><title>\\hykwWPData_tag&#45;&gt;\\baseHykwWPData</title>
<path fill="none" stroke="black" d="M217.459,-105.435C211.365,-108.247 205.414,-111.428 200,-115 154.85,-144.783 113.995,-193.372 91.1375,-223.417"/>
<polygon fill="none" stroke="black" points="88.1002,-221.634 84.9077,-231.736 93.7034,-225.829 88.1002,-221.634"/>
</g>
<!-- \\hykwWPData_url -->
<g id="node11" class="node"><title>\\hykwWPData_url</title>
<polygon fill="none" stroke="black" points="328,-52 218,-52 218,-16 328,-16 328,-52"/>
<text text-anchor="middle" x="273" y="-31.1" font-family="Courier,monospace" font-size="11.00">hykwWPData_url</text>
</g>
<!-- \\hykwWPData_url&#45;&gt;\\baseHykwWPData -->
<g id="edge17" class="edge"><title>\\hykwWPData_url&#45;&gt;\\baseHykwWPData</title>
<path fill="none" stroke="black" d="M217.22,-50.3984C211.101,-53.4045 205.211,-56.9149 200,-61 143.384,-105.385 102.699,-181.858 83.8196,-222.593"/>
<polygon fill="none" stroke="black" points="80.5405,-221.35 79.5978,-231.903 86.9156,-224.241 80.5405,-221.35"/>
</g>
</g>
</svg>
