<?xml version="1.0" encoding="UTF-8" standalone="no"?>
<!DOCTYPE svg PUBLIC "-//W3C//DTD SVG 1.1//EN"
 "http://www.w3.org/Graphics/SVG/1.1/DTD/svg11.dtd">
<!-- Generated by graphviz version 2.26.0 (20091210.2329)
 -->
<!-- Title: G Pages: 1 -->
<svg width="418pt" height="531pt"
 viewBox="0.00 0.00 418.00 531.00" xmlns="http://www.w3.org/2000/svg" xmlns:xlink="http://www.w3.org/1999/xlink">
<g id="graph1" class="graph" transform="scale(1 1) rotate(0) translate(4 527)">
<title>G</title>
<polygon fill="white" stroke="white" points="-4,5 -4,-527 415,-527 415,5 -4,5"/>
<g id="graph2" class="cluster"><title>cluster_Global</title>
<polyline fill="none" stroke="gray" points="252,-8 390,-8 "/>
<path fill="none" stroke="gray" d="M390,-8C396,-8 402,-14 402,-20"/>
<polyline fill="none" stroke="gray" points="402,-20 402,-503 "/>
<path fill="none" stroke="gray" d="M402,-503C402,-509 396,-515 390,-515"/>
<polyline fill="none" stroke="gray" points="390,-515 252,-515 "/>
<path fill="none" stroke="gray" d="M252,-515C246,-515 240,-509 240,-503"/>
<polyline fill="none" stroke="gray" points="240,-503 240,-20 "/>
<path fill="none" stroke="gray" d="M240,-20C240,-14 246,-8 252,-8"/>
<text text-anchor="middle" x="321" y="-501.1" font-family="Times Roman,serif" font-size="11.00" fill="gray">Global</text>
</g>
<!-- \\hykwWPData_account -->
<g id="node2" class="node"><title>\\hykwWPData_account</title>
<polygon fill="none" stroke="black" points="390,-484 252,-484 252,-448 390,-448 390,-484"/>
<text text-anchor="middle" x="321" y="-463.1" font-family="Courier,monospace" font-size="11.00">hykwWPData_account</text>
</g>
<!-- \\baseHykwWPData -->
<g id="node12" class="node"><title>\\baseHykwWPData</title>
<ellipse fill="none" stroke="black" cx="88" cy="-250" rx="87.1802" ry="19.0919"/>
<text text-anchor="middle" x="88" y="-246.9" font-family="Times Roman,serif" font-size="14.00" fill="gray">\baseHykwWPData</text>
</g>
<!-- \\hykwWPData_account&#45;&gt;\\baseHykwWPData -->
<g id="edge3" class="edge"><title>\\hykwWPData_account&#45;&gt;\\baseHykwWPData</title>
<path fill="none" stroke="black" d="M255.298,-447.803C249.926,-445.222 244.746,-442.3 240,-439 177.459,-395.51 127.403,-319.103 103.419,-278.02"/>
<polygon fill="none" stroke="black" points="106.309,-276.024 98.2952,-269.094 100.239,-279.509 106.309,-276.024"/>
</g>
<!-- \\hykwWPData_dir -->
<g id="node3" class="node"><title>\\hykwWPData_dir</title>
<polygon fill="none" stroke="black" points="376,-430 266,-430 266,-394 376,-394 376,-430"/>
<text text-anchor="middle" x="321" y="-409.1" font-family="Courier,monospace" font-size="11.00">hykwWPData_dir</text>
</g>
<!-- \\hykwWPData_dir&#45;&gt;\\baseHykwWPData -->
<g id="edge5" class="edge"><title>\\hykwWPData_dir&#45;&gt;\\baseHykwWPData</title>
<path fill="none" stroke="black" d="M265.233,-396.743C256.526,-393.425 247.829,-389.524 240,-385 188.665,-355.335 139.25,-306.471 111.341,-276.379"/>
<polygon fill="none" stroke="black" points="113.724,-273.798 104.388,-268.788 108.562,-278.526 113.724,-273.798"/>
</g>
<!-- \\hykwWPData_tag -->
<g id="node4" class="node"><title>\\hykwWPData_tag</title>
<polygon fill="none" stroke="black" points="376,-376 266,-376 266,-340 376,-340 376,-376"/>
<text text-anchor="middle" x="321" y="-355.1" font-family="Courier,monospace" font-size="11.00">hykwWPData_tag</text>
</g>
<!-- \\hykwWPData_tag&#45;&gt;\\baseHykwWPData -->
<g id="edge7" class="edge"><title>\\hykwWPData_tag&#45;&gt;\\baseHykwWPData</title>
<path fill="none" stroke="black" d="M265.2,-340.773C256.67,-337.746 248.036,-334.451 240,-331 200.41,-313.996 157.232,-290.472 127.047,-273.154"/>
<polygon fill="none" stroke="black" points="128.524,-269.966 118.115,-267.993 125.022,-276.027 128.524,-269.966"/>
</g>
<!-- \\hykwWPData_post -->
<g id="node5" class="node"><title>\\hykwWPData_post</title>
<polygon fill="none" stroke="black" points="380,-322 262,-322 262,-286 380,-286 380,-322"/>
<text text-anchor="middle" x="321" y="-301.1" font-family="Courier,monospace" font-size="11.00">hykwWPData_post</text>
</g>
<!-- \\hykwWPData_post&#45;&gt;\\baseHykwWPData -->
<g id="edge9" class="edge"><title>\\hykwWPData_post&#45;&gt;\\baseHykwWPData</title>
<path fill="none" stroke="black" d="M261.903,-290.304C230.258,-282.97 191.079,-273.89 157.925,-266.206"/>
<polygon fill="none" stroke="black" points="158.376,-262.718 147.844,-263.869 156.796,-269.537 158.376,-262.718"/>
</g>
<!-- \\hykwWPData_category -->
<g id="node6" class="node"><title>\\hykwWPData_category</title>
<polygon fill="none" stroke="black" points="393,-268 249,-268 249,-232 393,-232 393,-268"/>
<text text-anchor="middle" x="321" y="-247.1" font-family="Courier,monospace" font-size="11.00">hykwWPData_category</text>
</g>
<!-- \\hykwWPData_category&#45;&gt;\\baseHykwWPData -->
<g id="edge11" class="edge"><title>\\hykwWPData_category&#45;&gt;\\baseHykwWPData</title>
<path fill="none" stroke="black" d="M248.236,-250C228.499,-250 206.803,-250 185.924,-250"/>
<polygon fill="none" stroke="black" points="185.753,-246.5 175.753,-250 185.753,-253.5 185.753,-246.5"/>
</g>
<!-- \\hykwWPData_ob -->
<g id="node7" class="node"><title>\\hykwWPData_ob</title>
<polygon fill="none" stroke="black" points="373,-214 269,-214 269,-178 373,-178 373,-214"/>
<text text-anchor="middle" x="321" y="-193.1" font-family="Courier,monospace" font-size="11.00">hykwWPData_ob</text>
</g>
<!-- \\hykwWPData_ob&#45;&gt;\\baseHykwWPData -->
<g id="edge13" class="edge"><title>\\hykwWPData_ob&#45;&gt;\\baseHykwWPData</title>
<path fill="none" stroke="black" d="M268.71,-208.119C235.965,-215.708 193.377,-225.578 157.77,-233.83"/>
<polygon fill="none" stroke="black" points="156.878,-230.444 147.926,-236.111 158.458,-237.263 156.878,-230.444"/>
</g>
<!-- \\hykwWPData_page -->
<g id="node8" class="node"><title>\\hykwWPData_page</title>
<polygon fill="none" stroke="black" points="380,-160 262,-160 262,-124 380,-124 380,-160"/>
<text text-anchor="middle" x="321" y="-139.1" font-family="Courier,monospace" font-size="11.00">hykwWPData_page</text>
</g>
<!-- \\hykwWPData_page&#45;&gt;\\baseHykwWPData -->
<g id="edge15" class="edge"><title>\\hykwWPData_page&#45;&gt;\\baseHykwWPData</title>
<path fill="none" stroke="black" d="M263.029,-160.002C255.211,-162.813 247.355,-165.841 240,-169 200.41,-186.004 157.232,-209.528 127.047,-226.846"/>
<polygon fill="none" stroke="black" points="125.022,-223.973 118.115,-232.007 128.524,-230.034 125.022,-223.973"/>
</g>
<!-- \\hykwWPData_site -->
<g id="node9" class="node"><title>\\hykwWPData_site</title>
<polygon fill="none" stroke="black" points="380,-106 262,-106 262,-70 380,-70 380,-106"/>
<text text-anchor="middle" x="321" y="-85.1" font-family="Courier,monospace" font-size="11.00">hykwWPData_site</text>
</g>
<!-- \\hykwWPData_site&#45;&gt;\\baseHykwWPData -->
<g id="edge17" class="edge"><title>\\hykwWPData_site&#45;&gt;\\baseHykwWPData</title>
<path fill="none" stroke="black" d="M261.81,-104.592C254.26,-107.609 246.802,-111.069 240,-115 188.665,-144.665 139.25,-193.529 111.341,-223.621"/>
<polygon fill="none" stroke="black" points="108.562,-221.474 104.388,-231.212 113.724,-226.202 108.562,-221.474"/>
</g>
<!-- \\hykwWPData_url -->
<g id="node10" class="node"><title>\\hykwWPData_url</title>
<polygon fill="none" stroke="black" points="376,-52 266,-52 266,-16 376,-16 376,-52"/>
<text text-anchor="middle" x="321" y="-31.1" font-family="Courier,monospace" font-size="11.00">hykwWPData_url</text>
</g>
<!-- \\hykwWPData_url&#45;&gt;\\baseHykwWPData -->
<g id="edge19" class="edge"><title>\\hykwWPData_url&#45;&gt;\\baseHykwWPData</title>
<path fill="none" stroke="black" d="M265.376,-47.8084C256.466,-51.3259 247.667,-55.6685 240,-61 177.459,-104.49 127.403,-180.897 103.419,-221.98"/>
<polygon fill="none" stroke="black" points="100.239,-220.491 98.2952,-230.906 106.309,-223.976 100.239,-220.491"/>
</g>
</g>
</svg>
